<svg id="visual" viewBox="0 0 900 600" width="900" height="600" xmlns="http://www.w3.org/2000/svg" xmlns:xlink="http://www.w3.org/1999/xlink" version="1.1"><rect x="0" y="0" width="900" height="600" fill="#0f1e36"></rect><path d="M0 253L129 253L129 375L257 375L257 370L386 370L386 364L514 364L514 330L643 330L643 315L771 315L771 365L900 365L900 322L900 601L900 601L771 601L771 601L643 601L643 601L514 601L514 601L386 601L386 601L257 601L257 601L129 601L129 601L0 601Z" fill="#8ed266"></path><path d="M0 409L129 409L129 392L257 392L257 464L386 464L386 437L514 437L514 376L643 376L643 404L771 404L771 356L900 356L900 399L900 601L900 601L771 601L771 601L643 601L643 601L514 601L514 601L386 601L386 601L257 601L257 601L129 601L129 601L0 601Z" fill="#71c95e"></path><path d="M0 523L129 523L129 457L257 457L257 469L386 469L386 446L514 446L514 509L643 509L643 477L771 477L771 520L900 520L900 454L900 601L900 601L771 601L771 601L643 601L643 601L514 601L514 601L386 601L386 601L257 601L257 601L129 601L129 601L0 601Z" fill="#4fbf57"></path></svg>